<?xml version="1.0" standalone="no"?>
<!DOCTYPE svg PUBLIC "-//W3C//DTD SVG 20010904//EN"
 "http://www.w3.org/TR/2001/REC-SVG-20010904/DTD/svg10.dtd">
<svg version="1.0" xmlns="http://www.w3.org/2000/svg"
 width="1024.000000pt" height="1024.000000pt" viewBox="0 0 1024.000000 1024.000000"
 preserveAspectRatio="xMidYMid meet">

<g transform="translate(0.000000,1024.000000) scale(0.100000,-0.100000)"
fill="#000000" stroke="none">
<path d="M4259 6966 c-97 -39 -160 -98 -208 -193 -117 -232 -51 -710 134 -968
52 -74 102 -116 180 -151 50 -23 67 -26 139 -22 164 9 266 97 333 291 22 63
26 94 31 244 8 296 -38 482 -164 659 -102 144 -291 204 -445 140z"/>
<path d="M5714 6972 c-213 -75 -344 -362 -344 -753 0 -236 46 -393 145 -491
65 -65 124 -92 210 -96 91 -5 139 9 217 61 127 85 215 247 279 512 30 123 33
370 5 460 -40 132 -122 237 -224 287 -57 28 -79 33 -152 36 -62 2 -99 -3 -136
-16z"/>
<path d="M6670 6865 c0 -5 5 -17 10 -25 5 -8 10 -10 10 -5 0 6 -5 17 -10 25
-5 8 -10 11 -10 5z"/>
<path d="M6702 6780 c0 -8 4 -26 8 -40 6 -20 8 -21 8 -5 0 11 -3 29 -8 40 -5
12 -8 14 -8 5z"/>
<path d="M6725 6670 c3 -25 8 -105 12 -177 l6 -133 86 2 86 2 -81 3 -81 4 -6
137 c-4 75 -11 153 -17 172 -9 34 -9 34 -5 -10z"/>
<path d="M6958 6353 c7 -3 16 -2 19 1 4 3 -2 6 -13 5 -11 0 -14 -3 -6 -6z"/>
<path d="M3315 5864 c-119 -25 -200 -80 -256 -173 -53 -88 -60 -116 -66 -261
-4 -111 -2 -136 21 -222 48 -188 152 -373 273 -489 101 -96 165 -130 253 -137
161 -11 284 82 343 261 31 95 29 307 -6 437 -54 205 -121 340 -224 450 -97
104 -229 156 -338 134z"/>
<path d="M6801 5859 c-77 -13 -142 -53 -219 -133 -82 -87 -137 -189 -186 -346
-44 -142 -56 -216 -56 -345 0 -226 75 -371 225 -435 106 -46 263 -7 371 92
159 145 307 450 321 663 17 252 -106 454 -306 501 -63 15 -73 15 -150 3z"/>
<path d="M7711 5644 c0 -11 3 -14 6 -6 3 7 2 16 -1 19 -3 4 -6 -2 -5 -13z"/>
<path d="M7722 5590 c0 -14 2 -19 5 -12 2 6 2 18 0 25 -3 6 -5 1 -5 -13z"/>
<path d="M7733 5395 c1 -257 -38 -419 -153 -643 -74 -145 -162 -263 -279 -374
-127 -121 -191 -168 -306 -223 -55 -27 -101 -49 -103 -51 -2 -1 8 -35 22 -74
54 -148 72 -379 42 -520 -28 -132 -28 -128 -16 -100 51 116 53 433 4 579 -8
24 -13 46 -10 48 3 4 14 -29 44 -137 7 -24 10 -28 11 -13 1 12 6 25 11 28 6 4
8 11 5 16 -4 5 2 9 13 9 13 0 26 16 42 50 13 28 27 50 32 50 4 0 8 14 8 30 0
23 4 30 20 30 11 0 20 5 20 10 0 6 -4 10 -10 10 -5 0 -10 9 -10 21 0 12 -8 23
-20 26 -17 4 -14 10 23 40 140 114 216 182 238 210 13 17 26 30 28 28 8 -9
181 237 181 258 0 6 6 2 14 -8 13 -18 14 -18 9 7 -3 17 7 53 31 105 95 210
139 465 118 673 -8 77 -9 70 -9 -85z m-694 -1249 c-2 -2 -15 -9 -29 -15 -24
-11 -24 -11 -6 3 16 13 49 24 35 12z m-109 -74 c0 -15 -2 -15 -10 -2 -13 20
-13 33 0 25 6 -3 10 -14 10 -23z"/>
<path d="M4972 5054 c-197 -58 -344 -163 -638 -458 -175 -176 -254 -270 -375
-448 -140 -206 -187 -320 -196 -478 -9 -161 34 -279 141 -385 154 -154 365
-191 651 -114 256 68 323 80 490 86 191 7 362 -12 530 -58 248 -67 274 -71
380 -66 192 9 334 78 431 209 57 77 70 107 90 206 44 212 -49 430 -343 800
-95 120 -324 355 -434 447 -315 263 -496 328 -727 259z"/>
<path d="M7255 4290 c-3 -6 1 -7 9 -4 18 7 21 14 7 14 -6 0 -13 -4 -16 -10z"/>
<path d="M3140 4196 c0 -2 8 -10 18 -17 15 -13 16 -12 3 4 -13 16 -21 21 -21
13z"/>
<path d="M6886 3284 c-15 -37 -25 -68 -23 -71 4 -4 39 74 52 115 13 44 -2 21
-29 -44z"/>
<path d="M6820 3149 c-7 -11 -10 -23 -7 -25 2 -2 9 7 15 21 14 30 7 33 -8 4z"/>
<path d="M6777 3080 c-31 -52 -170 -192 -249 -251 -79 -59 -183 -113 -276
-144 -29 -9 -51 -19 -49 -21 2 -3 24 2 48 10 24 8 46 13 48 10 9 -9 -23 -24
-50 -24 -14 0 -29 -3 -33 -7 -10 -10 -40 -10 -47 0 -3 5 -24 4 -45 -3 -22 -6
-100 -13 -174 -17 -164 -6 -262 8 -487 71 -185 52 -300 70 -392 60 -36 -3
-174 -34 -306 -68 l-240 -61 -200 0 c-110 0 -180 -3 -155 -7 25 -3 74 -7 110
-7 49 -1 61 -4 50 -12 -12 -9 -11 -9 5 -3 11 4 64 11 117 15 53 5 132 17 176
29 89 22 104 24 82 10 -25 -16 12 -12 51 5 l34 16 -35 -6 c-29 -4 -31 -3 -10
4 52 18 179 51 197 51 28 0 -6 -19 -37 -21 -23 0 -24 -1 -5 -10 18 -8 18 -9
-4 -5 -13 3 -37 2 -53 -1 -22 -4 -26 -9 -17 -19 16 -20 70 -29 80 -13 7 11 9
11 9 -2 0 -11 12 -19 36 -24 20 -3 39 -4 42 -1 3 3 -4 6 -16 6 -14 0 -22 6
-22 18 0 14 2 14 9 3 7 -11 30 -13 120 -7 73 4 111 3 111 -4 0 -6 39 -10 100
-10 60 0 100 -4 100 -10 0 -5 9 -10 20 -10 11 0 20 5 20 10 0 6 -7 10 -16 10
-8 0 -12 5 -9 10 3 6 14 10 25 10 10 0 20 6 23 14 5 12 15 12 66 -1 34 -9 58
-20 55 -25 -4 -6 1 -8 12 -4 29 9 170 -19 188 -37 9 -8 16 -24 17 -34 0 -10 3
-13 6 -5 2 6 13 12 24 12 14 0 19 -7 19 -25 0 -14 5 -25 10 -25 6 0 10 11 10
25 0 20 5 25 25 25 16 0 25 6 25 16 0 12 -6 15 -22 11 -13 -3 -41 -2 -63 3
-30 6 -11 8 77 9 106 1 139 -5 121 -22 -3 -4 -14 -2 -23 3 -15 8 -17 6 -13
-10 3 -11 10 -23 16 -27 16 -9 130 -3 144 8 7 7 14 6 18 -1 4 -6 13 -9 21 -6
7 3 16 1 19 -4 4 -6 -1 -10 -10 -10 -9 0 -13 -5 -10 -10 5 -8 11 -7 20 0 8 7
19 9 25 5 7 -4 14 2 17 15 3 13 11 19 20 16 7 -3 16 1 19 9 4 8 13 15 21 15
23 0 39 22 46 63 5 35 -4 49 -18 27 -7 -12 -35 -14 -35 -2 1 13 119 61 123 49
2 -6 9 -7 16 -3 7 5 10 14 7 21 -3 8 5 16 20 19 13 4 24 11 24 16 0 5 13 16
28 24 58 30 286 275 270 291 -2 2 -12 -9 -21 -25z m-1482 -345 l60 -14 -55 5
c-134 13 -258 15 -293 6 -20 -6 -37 -7 -37 -2 0 13 35 17 155 18 63 1 136 -5
170 -13z m150 -35 c15 -7 10 -8 -19 -5 -21 2 -41 6 -44 9 -9 9 41 6 63 -4z
m695 -70 c-8 -6 -35 -9 -60 -9 l-45 1 55 12 c58 12 74 11 50 -4z m-40 -30 c0
-5 -4 -10 -10 -10 -5 0 -10 5 -10 10 0 6 5 10 10 10 6 0 10 -4 10 -10z m150
-18 c0 -4 -16 -6 -35 -4 -19 2 -35 6 -35 8 0 2 16 4 35 4 19 0 35 -4 35 -8z"/>
<path d="M3780 2779 c0 -3 35 -38 77 -79 43 -41 68 -64 58 -50 -29 37 -135
138 -135 129z"/>
<path d="M6390 2710 c-20 -12 -5 -24 16 -12 9 5 12 12 7 15 -5 3 -15 2 -23 -3z"/>
<path d="M4060 2650 c14 -4 34 -8 45 -8 16 0 15 2 -5 8 -14 4 -34 8 -45 8 -16
0 -15 -2 5 -8z"/>
<path d="M5518 2653 c7 -3 16 -2 19 1 4 3 -2 6 -13 5 -11 0 -14 -3 -6 -6z"/>
<path d="M6450 2630 c0 -5 5 -10 10 -10 6 0 10 5 10 10 0 6 -4 10 -10 10 -5 0
-10 -4 -10 -10z"/>
<path d="M3940 2616 c0 -2 8 -10 18 -17 15 -13 16 -12 3 4 -13 16 -21 21 -21
13z"/>
<path d="M5720 2601 c0 -5 -8 -12 -17 -14 -10 -3 -1 -5 20 -6 38 -1 50 12 21
23 -21 8 -24 8 -24 -3z"/>
<path d="M6310 2560 c0 -5 7 -10 15 -10 8 0 15 5 15 10 0 6 -7 10 -15 10 -8 0
-15 -4 -15 -10z"/>
<path d="M5772 2540 c0 -14 2 -19 5 -12 2 6 2 18 0 25 -3 6 -5 1 -5 -13z"/>
</g>
</svg>
